<svg viewBox="0 0 18 18" xmlns="http://www.w3.org/2000/svg" fill="#db291c">
  <g transform="matrix(1.86193 0 0 1.86193 -2134.636 -12994.814)">
    <circle cx="1151.6" cy="6983.5" r=".1"/>
    <circle cx="1151.5" cy="6982.6" r=".1"/>
    <circle cx="1152.5" cy="6983.1" r=".1"/>
    <circle cx="1151.7" cy="6984.5" r=".1"/>
    <path d="m1151.5 6982.8-1.1 1.9c.1 0 .2.1.2.1l.7-1.2v-.1c0-.1 0-.3.2-.3h.1l.8-1.4c-.1-.1-.1-.1-.2-.1l-.4.7c0 .3-.1.4-.3.4zM1152.4 6982.9l.4-.6c-.1-.1-.1-.2-.2-.2l-.8 1.4c0 .1 0 .3-.2.3l-.7 1.2h.3l.2-.4c0-.1 0-.3.2-.3l.6-1c0-.2 0-.4.2-.4zM1151.3 6982.7c-.1-.1-.1-.3.1-.4h.2l.4-.7c-.9-.3-1.9.1-2.2 1-.3.7 0 1.5.5 2l1-1.9zM1152.7 6983c.1.2 0 .4-.1.4h-.1l-.5.9v.1c0 .1 0 .3-.2.3h-.1l-.1.2c1-.1 1.6-1 1.5-2 0-.2-.1-.3-.1-.5l-.3.6z"/>
  </g>
  <path d="M15.667 1.889H2.333C1.623 1.889 1 2.51 1 3.222v8.89c0 .71.622 1.332 1.333 1.332h5.334l-.445 1.334H5.178c-.356 0-.711.266-.711.622.089.444.355.711.71.711h7.556a.608.608 0 0 0 .623-.622.608.608 0 0 0-.623-.622h-1.955l-.445-1.423h5.334c.71 0 1.333-.622 1.333-1.333V3.222c0-.71-.622-1.333-1.333-1.333zm-.445 9.778H2.778v-8h12.444v8z"/>
</svg>
